<svg xmlns="http://www.w3.org/2000/svg" id="Capa_1" viewBox="0 0 3348 840.7"><style>.lg1{fill:none;stroke:#727272;stroke-width:.1;stroke-miterlimit:10}.lg2{fill:#04a563}</style><path fill="none" stroke="#2bce99" stroke-linecap="round" stroke-miterlimit="10" stroke-width="44.9999" d="M2409.3 711.8c109.1-46.4 185.4-155.5 185.4-280.9 0-169.1-136.4-305.5-305.5-305.5s-305.5 136.4-305.5 305.5c0 125.4 76.4 234.6 185.4 280.9M1806.5 210c-51.8-54.5-125.4-84.6-207.3-84.6-160.9 0-294.5 130.9-294.5 294.5 0 160.9 130.9 294.5 294.5 294.5 79.1 0 152.7-32.7 207.3-84.6m-365.4-212.6h278.2M3312 711.8V406.3c0-158.2-128.2-283.6-283.6-283.6S2742 250.9 2742 406.3v305.5"/><path d="M636.7 365.4l60-94.6L544.1 9.3l-121.8-.4-147.7 249.9L337.8 364l98.2 4.7 39.4-71.4 42.3 69.9.3-.4-.2.3zM390.4 601.7l-89.8.1 38.6-70.2-60.9-102.5-100-7.3L1.4 721.1l58 118.7 315.4-.5L446.2 725zM961 723.8L792.3 434.7l-117.5 4.7-61.4 91.7 43.2 71.3-73.8.3-64.2 117.5L567 838.9l339.5-.5z" class="lg2"/><g><path fill="#117246" d="M339.2 531.6l-98.2-4.7-62.7-105.1 100 7.3 60.9 102.5zm297.5-166.2l60-94.6-117.4 4.7-61.5 91.6 118.9-1.7zm1.8 360.6l-55.7-123.3-64.2 117.5L567 838.9 638.5 726z"/><path fill="#1b7f56" d="M232.1 726.1l107.1-194.5-98.2-4.7L59.4 839.8l315.4-.5L446.2 725l-214.1 1.1zM436 368.7l-98.2-4.7L425 213.8l50.5 83.4-39.5 71.5zM638.6 726l322.4-2.2-54.5 114.6-339.5.5L638.6 726z"/><path fill="#2bce99" d="M241 526.9L59.4 839.8l-58-118.7 176.9-299.3L241 526.9zm183.9-313l50.5 83.4 42.3 69.9 61.5-91.6L422.3 8.9 274.6 258.8 337.8 364l87.1-150.1zm249.9 225.5l95.9 162.8-114.1.2-43.2-71.3 61.4-91.7z"/><path d="M390.4 601.7l-89.8.1-68.4 124.3 214.1-1.1-55.9-123.3zm188.9-326.2L422.3 8.9l121.8.4 152.6 261.5-117.4 4.7zm191.4 326.7l-187.9.5L638.5 726l322.5-2.2-168.7-289.1-117.5 4.7 95.9 162.8z" class="lg2"/></g></svg>