<?xml version="1.0" standalone="no"?>
<!DOCTYPE svg PUBLIC "-//W3C//DTD SVG 20010904//EN"
 "http://www.w3.org/TR/2001/REC-SVG-20010904/DTD/svg10.dtd">
<svg version="1.0" xmlns="http://www.w3.org/2000/svg"
 width="1080.000000pt" height="1080.000000pt" viewBox="0 0 1080.000000 1080.000000"
 preserveAspectRatio="xMidYMid meet">
<metadata>
Created by potrace 1.11, written by Peter Selinger 2001-2013
</metadata>
<g transform="translate(0.000000,1080.000000) scale(0.100000,-0.100000)"
fill="#000000" stroke="none">
<path d="M4435 7889 c-522 -302 -951 -553 -953 -557 -1 -4 156 -98 349 -209
326 -188 353 -201 373 -188 11 8 286 167 610 354 l589 340 57 -32 c31 -18 465
-268 963 -557 l907 -525 0 -1116 0 -1117 350 -203 c192 -112 347 -206 342
-210 -12 -11 -2615 -1509 -2622 -1509 -14 0 -2608 1505 -2610 1514 -1 5 151
98 338 205 l341 196 3 708 3 707 955 -551 c525 -303 960 -553 966 -555 6 -3
170 87 365 199 l354 203 3 412 c1 227 0 412 -2 412 -2 0 -161 -91 -353 -201
-191 -111 -353 -202 -359 -202 -6 0 -602 341 -1325 757 -723 417 -1672 965
-2110 1217 -438 252 -799 459 -803 459 -3 0 -6 -1102 -6 -2448 l0 -2448 2111
-1220 c1162 -670 2118 -1220 2126 -1222 8 -2 968 547 2134 1219 l2119 1223 0
2453 c0 1350 -3 2452 -7 2450 -5 -3 -367 -212 -805 -466 l-797 -461 -1315 760
c-724 418 -1321 760 -1328 760 -7 -1 -440 -248 -963 -551z"/>
</g>
</svg>
