<?xml version="1.0" encoding="utf-8"?>
<!-- Generator: Adobe Illustrator 22.1.0, SVG Export Plug-In . SVG Version: 6.00 Build 0)  -->
<svg version="1.1" id="Capa_1" xmlns="http://www.w3.org/2000/svg" xmlns:xlink="http://www.w3.org/1999/xlink" x="0px" y="0px"
	 viewBox="0 0 198 53.3" style="enable-background:new 0 0 198 53.3;" xml:space="preserve">
<style type="text/css">
	.st0{fill:none;stroke:#444444;stroke-width:2;stroke-linecap:round;stroke-miterlimit:10;}
	.st1{fill:#47CCE2;}
	.st2{fill:none;stroke:#47CCE2;stroke-width:2;stroke-linecap:round;stroke-miterlimit:10;}
	.st3{fill:#2D2D2D;}
	.st4{fill:#2D9196;}
	.st5{fill:#2A8282;}
	.st6{fill:#444444;}
	.st7{fill:#141414;}
</style>
<path class="st0" d="M107.7,40c5-2.1,8.4-7.1,8.4-12.8c0-7.7-6.2-14-14-14s-14,6.2-14,14c0,5.7,3.5,10.7,8.4,12.8"/>
<path class="st0" d="M81.4,17c-2.4-2.4-5.7-3.8-9.4-3.8c-7.4,0-13.5,6-13.5,13.4S64.5,40,71.9,40c3.7,0,7-1.5,9.4-3.8"/>
<line class="st0" x1="64.7" y1="26.6" x2="77.4" y2="26.6"/>
<path class="st0" d="M148.6,40V26.1c0-7.1-5.8-12.9-13-12.9c-7.1,0-12.9,5.8-12.9,12.9V40"/>
<circle class="st1" cx="156.2" cy="39" r="2"/>
<path class="st2" d="M163.8,33.5c0,3.5,2.9,6.5,6.5,6.5c3.5,0,6.5-2.9,6.5-6.5V13.3"/>
<path class="st2" d="M196.8,19.9c0-3.7-2.9-6.7-6.7-6.7c-3.7,0-6.7,2.9-6.7,6.7s3,5.8,6.7,6.7c3.9,0.8,6.7,2.9,6.7,6.7
	s-2.9,6.7-6.7,6.7c-3.7,0-6.7-2.9-6.7-6.7"/>
<g>
	<polygon class="st3" points="46.1,13.3 46.1,13.3 23.1,0 0,13.3 0,40 0,40 0,40 23.1,53.3 46.1,40 	"/>
	<polygon class="st4" points="23.1,13.2 11.4,19.9 11.4,33.4 23.1,40.2 34.7,33.4 34.7,19.9 	"/>
	<g>
		<polygon class="st5" points="34.7,33.4 34.7,19.9 23.1,26.6 23.1,40.2 		"/>
		<polygon class="st1" points="23.1,26.6 11.4,19.9 23.1,13.2 34.7,19.9 		"/>
		<polygon class="st4" points="23.1,40.2 11.4,33.4 11.4,19.9 23.1,26.6 		"/>
	</g>
	<g>
		<polygon class="st6" points="37.4,34.9 34.7,33.4 23.1,40.2 11.4,33.4 8.7,34.9 23.1,43.2 		"/>
		<polygon class="st7" points="11.4,19.9 23.1,13.2 23.1,10.1 8.7,18.4 8.7,34.9 11.4,33.4 		"/>
		<polygon class="st3" points="34.7,19.9 34.7,33.4 37.4,34.9 37.4,18.4 23.1,10.1 23.1,13.2 		"/>
	</g>
	<path class="st3" d="M23.1,0L0,13.3V40l23.1,13.3L46.1,40V13.3L23.1,0z M37.4,34.9l-14.3,8.3L8.7,34.9V22.8l14.3,8.3l3.9-2.2v-4.5
		l-14.3-8.3l10.5-6l14.3,8.3V34.9z"/>
	<g>
		<polygon class="st7" points="37.4,18.4 37.4,18.4 37.4,34.9 23.1,43.2 23.1,53.3 46.1,40 46.1,13.3 		"/>
		<polygon class="st7" points="26.9,28.9 26.9,24.4 23.1,26.6 23.1,31.1 		"/>
		<polygon class="st6" points="37.4,18.4 46.1,13.3 23.1,0 0,13.3 23.1,26.6 26.9,24.4 12.6,16.1 23.1,10.1 		"/>
		<polygon class="st3" points="23.1,31.1 23.1,26.6 0,13.3 0,40 23.1,53.3 23.1,43.2 8.7,34.9 8.7,22.8 		"/>
	</g>
</g>
</svg>
